<?xml version="1.0" encoding="iso-8859-1"?>
<svg fill="#000000" height="96px" width="96px" version="1.1" id="Layer_1" xmlns="http://www.w3.org/2000/svg" xmlns:xlink="http://www.w3.org/1999/xlink" 
	 viewBox="0 0 511.998 511.998" xml:space="preserve">
<g>
	<g>
		<path d="M459.83,100.102l-29.398-39.727c-5.465-7.383-14.208-11.79-23.392-11.79H278.529V35.299
			c0-19.464-15.835-35.299-35.3-35.299h-25.756c-19.466,0-35.302,15.835-35.302,35.299v13.284h-55.316
			c-16.046,0-29.101,13.055-29.101,29.1v79.455c0,16.046,13.055,29.101,29.101,29.101h55.316v18.458h-77.213
			c-9.184,0-17.928,4.408-23.392,11.79l-29.402,39.73c-7.659,10.354-7.659,24.266,0.002,34.619l29.399,39.727
			c5.465,7.383,14.208,11.79,23.392,11.79h77.213v134.344c0,19.465,15.835,35.3,35.302,35.3h25.756c19.465,0,35.3-15.835,35.3-35.3
			V342.355h106.612c16.046,0,29.101-13.055,29.101-29.1v-79.455c0-16.046-13.055-29.101-29.101-29.101H278.529v-18.458H407.04
			c9.184,0,17.928-4.408,23.392-11.79l29.397-39.726C467.493,124.369,467.493,110.455,459.83,100.102z M215.751,35.299
			c0-0.948,0.772-1.719,1.722-1.719h25.756c0.949,0,1.72,0.771,1.72,1.719v13.284h-29.198V35.299z M244.949,476.7
			c0,0.949-0.771,1.72-1.72,1.72h-25.756c-0.949,0-1.721-0.771-1.721-1.72V342.355h29.198V476.7z M380.661,238.279v70.496
			c-11.021,0-261.794,0-273.447,0l-26.084-35.248l26.084-35.248C125.592,238.279,374.412,238.279,380.661,238.279z M244.949,204.699
			h-29.198v-18.458h29.198V204.699z M404.782,152.661c-7.118,0-262.077,0-273.448,0V82.165c10.818,0,255.107,0,273.448,0
			l26.083,35.248L404.782,152.661z"/>
	</g>
</g>
</svg>